<svg xmlns="http://www.w3.org/2000/svg"
    xmlns:xlink="http://www.w3.org/1999/xlink" width="65" zoomAndPan="magnify" viewBox="0 0 48.75 38.249999" height="51" preserveAspectRatio="xMidYMid meet" version="1.0">
    <defs>
        <g/>
        <clipPath id="31645233be">
            <path d="M 7 25 L 8 25 L 8 28.226562 L 7 28.226562 Z M 7 25 " clip-rule="nonzero"/>
        </clipPath>
        <clipPath id="206534edff">
            <path d="M 8 25 L 11 25 L 11 28.226562 L 8 28.226562 Z M 8 25 " clip-rule="nonzero"/>
        </clipPath>
        <clipPath id="0c9e0ac5ed">
            <path d="M 7 11 L 11 11 L 11 28.226562 L 7 28.226562 Z M 7 11 " clip-rule="nonzero"/>
        </clipPath>
        <clipPath id="25a21d86d7">
            <path d="M 6 25 L 8 25 L 8 28.226562 L 6 28.226562 Z M 6 25 " clip-rule="nonzero"/>
        </clipPath>
        <clipPath id="033b834c87">
            <path d="M 5 9.101562 L 12.117188 9.101562 L 12.117188 13 L 5 13 Z M 5 9.101562 " clip-rule="nonzero"/>
        </clipPath>
        <clipPath id="55e3e3bfa2">
            <path d="M 0.347656 16 L 11 16 L 11 28.226562 L 0.347656 28.226562 Z M 0.347656 16 " clip-rule="nonzero"/>
        </clipPath>
        <clipPath id="f16993167d">
            <path d="M 15 0 L 18 0 L 18 37.515625 L 15 37.515625 Z M 15 0 " clip-rule="nonzero"/>
        </clipPath>
        <clipPath id="010c32c0bf">
            <rect x="0" width="27" y="0" height="19"/>
        </clipPath>
    </defs>
    <g clip-path="url(#31645233be)">
        <path fill="#201f24" d="M 7.628906 25.828125 C 7.746094 25.851562 7.867188 25.871094 7.992188 25.890625 L 7.992188 28.214844 C 7.867188 28.207031 7.75 28.199219 7.628906 28.1875 C 7.546875 28.179688 7.460938 28.171875 7.382812 28.160156 L 7.382812 25.777344 C 7.460938 25.796875 7.542969 25.8125 7.628906 25.828125 Z M 7.628906 25.828125 " fill-opacity="1" fill-rule="nonzero"/>
    </g>
    <path fill="#201f24" d="M 7.988281 15.425781 L 7.988281 25.433594 C 7.914062 25.417969 7.839844 25.402344 7.773438 25.386719 C 7.722656 25.375 7.671875 25.363281 7.628906 25.355469 C 7.59375 25.347656 7.5625 25.339844 7.53125 25.332031 C 7.480469 25.320312 7.433594 25.304688 7.386719 25.292969 L 7.386719 15.425781 Z M 7.988281 15.425781 " fill-opacity="1" fill-rule="nonzero"/>
    <g clip-path="url(#206534edff)">
        <path fill="#201f24" d="M 10.335938 27.078125 C 10.335938 27.273438 10.289062 27.46875 10.195312 27.640625 C 10.042969 27.914062 9.769531 28.121094 9.367188 28.167969 C 9.082031 28.203125 8.789062 28.222656 8.492188 28.226562 C 8.484375 28.226562 8.480469 28.226562 8.472656 28.226562 L 8.472656 25.941406 C 8.691406 25.960938 8.910156 25.96875 9.128906 25.96875 C 9.160156 25.96875 9.191406 25.96875 9.226562 25.96875 C 9.953125 25.960938 10.335938 26.519531 10.335938 27.078125 Z M 10.335938 27.078125 " fill-opacity="1" fill-rule="nonzero"/>
    </g>
    <path fill="#201f24" d="M 10.578125 11.65625 L 10.578125 12.066406 L 10.335938 12.066406 L 10.335938 25.816406 C 10.15625 25.667969 9.914062 25.570312 9.613281 25.574219 C 9.582031 25.574219 9.550781 25.574219 9.515625 25.574219 C 9.292969 25.574219 9.078125 25.566406 8.859375 25.546875 C 8.730469 25.539062 8.597656 25.527344 8.46875 25.507812 L 8.46875 15.183594 C 8.46875 15.050781 8.359375 14.9375 8.222656 14.9375 L 7.621094 14.9375 L 7.621094 12.078125 L 7.375 12.078125 L 7.375 11.65625 Z M 10.578125 11.65625 " fill-opacity="1" fill-rule="nonzero"/>
    <g clip-path="url(#0c9e0ac5ed)">
        <path fill="#201f24" d="M 10.578125 11.414062 L 7.382812 11.414062 C 7.25 11.414062 7.136719 11.527344 7.136719 11.660156 L 7.136719 12.082031 L 7.628906 12.082031 L 7.628906 11.90625 L 10.339844 11.90625 L 10.339844 12.070312 L 10.828125 12.070312 L 10.828125 11.65625 C 10.824219 11.523438 10.714844 11.414062 10.578125 11.414062 Z M 7.136719 15.425781 L 7.136719 25.21875 C 7.21875 25.242188 7.296875 25.269531 7.382812 25.292969 C 7.433594 25.308594 7.476562 25.320312 7.527344 25.332031 C 7.558594 25.339844 7.59375 25.347656 7.625 25.355469 L 7.625 15.425781 Z M 7.382812 25.777344 C 7.300781 25.757812 7.21875 25.738281 7.136719 25.722656 L 7.136719 28.125 C 7.21875 28.136719 7.296875 28.148438 7.382812 28.160156 C 7.460938 28.171875 7.542969 28.179688 7.628906 28.1875 L 7.628906 25.828125 C 7.542969 25.8125 7.460938 25.796875 7.382812 25.777344 Z M 7.382812 25.777344 " fill-opacity="1" fill-rule="nonzero"/>
    </g>
    <g clip-path="url(#25a21d86d7)">
        <path fill="#201f24" d="M 7.628906 25.828125 C 7.746094 25.851562 7.867188 25.871094 7.992188 25.890625 L 7.992188 28.214844 C 7.867188 28.207031 7.75 28.199219 7.628906 28.1875 C 7.546875 28.179688 7.460938 28.171875 7.382812 28.160156 C 7.300781 28.148438 7.21875 28.136719 7.136719 28.125 C 6.792969 28.074219 6.453125 27.996094 6.125 27.898438 L 6.125 25.386719 C 6.453125 25.523438 6.789062 25.632812 7.136719 25.722656 C 7.21875 25.738281 7.296875 25.761719 7.382812 25.777344 C 7.460938 25.796875 7.542969 25.8125 7.628906 25.828125 Z M 7.628906 25.828125 " fill-opacity="1" fill-rule="nonzero"/>
    </g>
    <path fill="#201f24" d="M 7.988281 15.425781 L 7.988281 25.433594 C 7.914062 25.417969 7.839844 25.402344 7.773438 25.386719 C 7.722656 25.375 7.671875 25.363281 7.628906 25.355469 C 7.59375 25.347656 7.5625 25.339844 7.53125 25.332031 C 7.480469 25.320312 7.433594 25.304688 7.386719 25.292969 C 7.304688 25.269531 7.222656 25.246094 7.140625 25.21875 C 6.929688 25.15625 6.71875 25.078125 6.519531 24.996094 C 6.386719 24.945312 6.257812 24.886719 6.128906 24.828125 L 6.128906 18.347656 C 6.128906 18.210938 6.019531 18.101562 5.882812 18.101562 L 5.277344 18.101562 L 5.277344 15.425781 Z M 7.988281 15.425781 " fill-opacity="1" fill-rule="nonzero"/>
    <path fill="#201f24" d="M 5.273438 24.988281 C 5.394531 25.050781 5.515625 25.113281 5.636719 25.175781 L 5.636719 27.738281 C 5.515625 27.691406 5.398438 27.644531 5.273438 27.59375 C 5.195312 27.5625 5.109375 27.527344 5.03125 27.488281 L 5.03125 24.847656 C 5.113281 24.894531 5.195312 24.941406 5.273438 24.988281 Z M 5.273438 24.988281 " fill-opacity="1" fill-rule="nonzero"/>
    <path fill="#201f24" d="M 5.636719 18.589844 L 5.636719 24.582031 C 5.566406 24.542969 5.492188 24.5 5.425781 24.457031 C 5.375 24.429688 5.324219 24.402344 5.277344 24.371094 C 5.246094 24.351562 5.214844 24.328125 5.183594 24.308594 C 5.132812 24.277344 5.082031 24.246094 5.039062 24.214844 L 5.039062 18.589844 Z M 5.636719 18.589844 " fill-opacity="1" fill-rule="nonzero"/>
    <path fill="#201f24" d="M 4.789062 18.589844 L 4.789062 24.042969 C 4.871094 24.097656 4.949219 24.15625 5.035156 24.214844 C 5.082031 24.25 5.128906 24.277344 5.179688 24.308594 C 5.210938 24.328125 5.246094 24.351562 5.273438 24.371094 L 5.273438 18.589844 Z M 5.035156 24.847656 C 4.953125 24.800781 4.871094 24.75 4.789062 24.699219 L 4.789062 27.371094 C 4.871094 27.410156 4.949219 27.449219 5.035156 27.488281 C 5.113281 27.527344 5.195312 27.5625 5.277344 27.59375 L 5.277344 24.988281 C 5.195312 24.941406 5.113281 24.894531 5.035156 24.847656 Z M 5.035156 24.847656 " fill-opacity="1" fill-rule="nonzero"/>
    <path fill="#201f24" d="M 5.273438 24.988281 C 5.394531 25.050781 5.515625 25.113281 5.636719 25.175781 L 5.636719 27.738281 C 5.515625 27.691406 5.398438 27.644531 5.273438 27.59375 C 5.195312 27.5625 5.109375 27.527344 5.03125 27.488281 C 4.949219 27.449219 4.867188 27.410156 4.785156 27.371094 C 4.105469 27.023438 3.476562 26.589844 2.921875 26.074219 L 2.921875 23.046875 C 3.453125 23.691406 4.082031 24.25 4.785156 24.699219 C 4.867188 24.75 4.945312 24.804688 5.03125 24.847656 C 5.113281 24.894531 5.195312 24.941406 5.273438 24.988281 Z M 5.273438 24.988281 " fill-opacity="1" fill-rule="nonzero"/>
    <path fill="#201f24" d="M 5.636719 18.589844 L 5.636719 24.582031 C 5.566406 24.542969 5.492188 24.5 5.425781 24.457031 C 5.375 24.429688 5.324219 24.402344 5.277344 24.371094 C 5.246094 24.351562 5.214844 24.328125 5.183594 24.308594 C 5.132812 24.277344 5.082031 24.246094 5.039062 24.214844 C 4.953125 24.15625 4.875 24.101562 4.792969 24.042969 C 4.246094 23.644531 3.753906 23.175781 3.320312 22.652344 C 3.183594 22.488281 3.050781 22.316406 2.929688 22.140625 L 2.929688 18.589844 Z M 5.636719 18.589844 " fill-opacity="1" fill-rule="nonzero"/>
    <g clip-path="url(#033b834c87)">
        <path fill="#201f24" d="M 5.570312 12.085938 L 7.136719 12.078125 L 7.628906 12.078125 L 10.335938 12.066406 L 10.824219 12.066406 L 12.414062 12.0625 L 8.980469 9.101562 Z M 5.570312 12.085938 " fill-opacity="1" fill-rule="nonzero"/>
    </g>
    <g clip-path="url(#55e3e3bfa2)">
        <path fill="#201f24" d="M 10.335938 27.078125 C 10.335938 27.273438 10.289062 27.46875 10.195312 27.640625 C 10.042969 27.914062 9.769531 28.121094 9.367188 28.167969 C 9.082031 28.203125 8.789062 28.222656 8.492188 28.226562 C 8.484375 28.226562 8.480469 28.226562 8.472656 28.226562 C 8.308594 28.226562 8.148438 28.226562 7.988281 28.214844 C 7.863281 28.207031 7.746094 28.199219 7.625 28.1875 C 7.542969 28.179688 7.457031 28.171875 7.378906 28.160156 C 7.296875 28.148438 7.214844 28.136719 7.132812 28.125 C 6.789062 28.074219 6.449219 27.996094 6.121094 27.898438 C 5.957031 27.847656 5.796875 27.792969 5.632812 27.738281 C 5.511719 27.691406 5.394531 27.644531 5.269531 27.59375 C 5.191406 27.5625 5.105469 27.527344 5.027344 27.488281 C 4.945312 27.449219 4.863281 27.410156 4.78125 27.371094 C 4.101562 27.023438 3.472656 26.589844 2.917969 26.074219 C 1.363281 24.617188 0.371094 22.542969 0.355469 20.238281 C 0.347656 18.925781 0.652344 17.6875 1.199219 16.589844 C 1.15625 16.859375 1.125 17.125 1.105469 17.402344 C 1.09375 17.574219 1.089844 17.75 1.089844 17.929688 C 1.089844 19.871094 1.777344 21.65625 2.925781 23.042969 C 3.457031 23.6875 4.085938 24.246094 4.789062 24.695312 C 4.871094 24.746094 4.949219 24.800781 5.035156 24.84375 C 5.113281 24.890625 5.195312 24.941406 5.277344 24.984375 C 5.398438 25.046875 5.519531 25.109375 5.640625 25.171875 C 5.800781 25.246094 5.964844 25.320312 6.128906 25.382812 C 6.457031 25.519531 6.792969 25.628906 7.140625 25.71875 C 7.222656 25.734375 7.300781 25.757812 7.386719 25.773438 C 7.464844 25.792969 7.546875 25.808594 7.632812 25.824219 C 7.75 25.847656 7.871094 25.867188 7.996094 25.886719 C 8.15625 25.910156 8.316406 25.925781 8.480469 25.9375 C 8.699219 25.957031 8.917969 25.964844 9.136719 25.964844 C 9.167969 25.964844 9.199219 25.964844 9.234375 25.964844 C 9.953125 25.960938 10.335938 26.519531 10.335938 27.078125 Z M 10.335938 27.078125 " fill-opacity="1" fill-rule="nonzero"/>
    </g>
    <g clip-path="url(#f16993167d)">
        <path stroke-linecap="round" transform="matrix(0, 0.735577, -0.735577, 0, 17.055353, 0.00238931)" fill="none" stroke-linejoin="miter" d="M 1.000428 0.99927 L 49.755742 0.99927 " stroke="#201f24" stroke-width="2" stroke-opacity="1" stroke-miterlimit="4"/>
    </g>
    <g transform="matrix(1, 0, 0, 1, 19, 9)">
        <g clip-path="url(#010c32c0bf)">
            <g fill="#201f24" fill-opacity="1">
                <g transform="translate(1.00005, 13.814256)">
                    <g>
                        <path d="M 4.75 -9.203125 C 5.40625 -9.203125 5.96875 -9.082031 6.4375 -8.84375 C 6.90625 -8.601562 7.257812 -8.265625 7.5 -7.828125 C 7.738281 -7.390625 7.859375 -6.882812 7.859375 -6.3125 C 7.859375 -5.738281 7.738281 -5.234375 7.5 -4.796875 C 7.257812 -4.367188 6.90625 -4.035156 6.4375 -3.796875 C 5.96875 -3.554688 5.40625 -3.4375 4.75 -3.4375 L 3.015625 -3.4375 L 3.015625 0 L 1.203125 0 L 1.203125 -9.203125 Z M 4.515625 -4.875 C 5.523438 -4.875 6.03125 -5.351562 6.03125 -6.3125 C 6.03125 -7.28125 5.523438 -7.765625 4.515625 -7.765625 L 3.015625 -7.765625 L 3.015625 -4.875 Z M 4.515625 -4.875 "/>
                    </g>
                </g>
            </g>
            <g fill="#201f24" fill-opacity="1">
                <g transform="translate(9.412019, 13.814256)">
                    <g>
                        <path d="M 7.03125 -9.203125 L 7.03125 -7.671875 L 3.015625 -7.671875 L 3.015625 -5.25 L 6.65625 -5.25 L 6.65625 -3.734375 L 3.015625 -3.734375 L 3.015625 0 L 1.203125 0 L 1.203125 -9.203125 Z M 7.03125 -9.203125 "/>
                    </g>
                </g>
            </g>
            <g fill="#201f24" fill-opacity="1">
                <g transform="translate(16.325342, 13.814256)">
                    <g>
                        <path d="M 8.828125 0 L 6.921875 0 L 6.21875 -2.125 L 2.703125 -2.125 L 2.015625 0 L 0.140625 0 L 3.3125 -9.203125 L 5.65625 -9.203125 Z M 4.375 -7.28125 L 3.1875 -3.65625 L 5.71875 -3.65625 L 4.53125 -7.28125 Z M 4.375 -7.28125 "/>
                    </g>
                </g>
            </g>
        </g>
    </g>
</svg>
