<svg xmlns="http://www.w3.org/2000/svg"
    xmlns:xlink="http://www.w3.org/1999/xlink" width="102" zoomAndPan="magnify" viewBox="0 0 76.5 56.999997" height="76" preserveAspectRatio="xMidYMid meet" version="1.0">
    <defs>
        <g/>
        <clipPath id="43e5893e76">
            <path d="M 0 0.183594 L 74.132812 0.183594 L 74.132812 56.664062 L 0 56.664062 Z M 0 0.183594 " clip-rule="nonzero"/>
        </clipPath>
        <clipPath id="bb51a9c9e0">
            <path d="M 3.726562 0.183594 L 70.339844 0.183594 C 72.398438 0.183594 74.066406 1.851562 74.066406 3.910156 L 74.066406 52.941406 C 74.066406 54.996094 72.398438 56.664062 70.339844 56.664062 L 3.726562 56.664062 C 1.667969 56.664062 0 54.996094 0 52.941406 L 0 3.910156 C 0 1.851562 1.667969 0.183594 3.726562 0.183594 Z M 3.726562 0.183594 " clip-rule="nonzero"/>
        </clipPath>
        <clipPath id="9b835af85a">
            <path d="M 0 0.183594 L 74.132812 0.183594 L 74.132812 56.664062 L 0 56.664062 Z M 0 0.183594 " clip-rule="nonzero"/>
        </clipPath>
        <clipPath id="9b4e4447d3">
            <path d="M 3.726562 0.183594 L 70.339844 0.183594 C 72.398438 0.183594 74.066406 1.851562 74.066406 3.910156 L 74.066406 52.941406 C 74.066406 54.996094 72.398438 56.664062 70.339844 56.664062 L 3.726562 56.664062 C 1.667969 56.664062 0 54.996094 0 52.941406 L 0 3.910156 C 0 1.851562 1.667969 0.183594 3.726562 0.183594 Z M 3.726562 0.183594 " clip-rule="nonzero"/>
        </clipPath>
        <clipPath id="6037c5313f">
            <rect x="0" width="75" y="0" height="57"/>
        </clipPath>
        <clipPath id="086c23cc79">
            <path d="M 19 44 L 22 44 L 22 50.949219 L 19 50.949219 Z M 19 44 " clip-rule="nonzero"/>
        </clipPath>
        <clipPath id="e221355af9">
            <path d="M 22 45 L 27 45 L 27 50.949219 L 22 50.949219 Z M 22 45 " clip-rule="nonzero"/>
        </clipPath>
        <clipPath id="b02dbe5b78">
            <path d="M 19 11 L 28 11 L 28 50.949219 L 19 50.949219 Z M 19 11 " clip-rule="nonzero"/>
        </clipPath>
        <clipPath id="b16a1f3024">
            <path d="M 16 44 L 22 44 L 22 50.949219 L 16 50.949219 Z M 16 44 " clip-rule="nonzero"/>
        </clipPath>
        <clipPath id="c7c7827d19">
            <path d="M 15 6.242188 L 31.738281 6.242188 L 31.738281 14 L 15 14 Z M 15 6.242188 " clip-rule="nonzero"/>
        </clipPath>
        <clipPath id="5ed3523382">
            <path d="M 3.425781 23 L 27 23 L 27 50.949219 L 3.425781 50.949219 Z M 3.425781 23 " clip-rule="nonzero"/>
        </clipPath>
    </defs>
    <g clip-path="url(#43e5893e76)">
        <g clip-path="url(#bb51a9c9e0)">
            <g transform="matrix(1, 0, 0, 1, 0, 0.000000000000004802)">
                <g clip-path="url(#6037c5313f)">
                    <g clip-path="url(#9b835af85a)">
                        <g clip-path="url(#9b4e4447d3)">
                            <path fill="#201f24" d="M 0 0.183594 L 74.132812 0.183594 L 74.132812 56.664062 L 0 56.664062 Z M 0 0.183594 " fill-opacity="1" fill-rule="nonzero"/>
                        </g>
                    </g>
                </g>
            </g>
        </g>
    </g>
    <g clip-path="url(#086c23cc79)">
        <path fill="#ffffff" d="M 20.3125 45.035156 C 20.585938 45.089844 20.871094 45.132812 21.152344 45.179688 L 21.152344 50.574219 C 20.871094 50.554688 20.59375 50.539062 20.3125 50.511719 C 20.125 50.492188 19.929688 50.476562 19.742188 50.449219 L 19.742188 44.921875 C 19.929688 44.964844 20.117188 45 20.3125 45.035156 Z M 20.3125 45.035156 " fill-opacity="1" fill-rule="nonzero"/>
    </g>
    <path fill="#ffffff" d="M 21.144531 20.90625 L 21.144531 44.125 C 20.976562 44.085938 20.808594 44.050781 20.648438 44.015625 C 20.535156 43.988281 20.417969 43.964844 20.3125 43.9375 C 20.230469 43.917969 20.160156 43.902344 20.089844 43.882812 C 19.972656 43.855469 19.859375 43.820312 19.753906 43.792969 L 19.753906 20.90625 Z M 21.144531 20.90625 " fill-opacity="1" fill-rule="nonzero"/>
    <g clip-path="url(#e221355af9)">
        <path fill="#ffffff" d="M 26.59375 47.9375 C 26.59375 48.390625 26.484375 48.84375 26.265625 49.242188 C 25.917969 49.871094 25.28125 50.351562 24.347656 50.464844 C 23.683594 50.546875 23.007812 50.589844 22.316406 50.597656 C 22.296875 50.597656 22.289062 50.597656 22.273438 50.597656 L 22.273438 45.304688 C 22.777344 45.347656 23.285156 45.363281 23.796875 45.363281 C 23.867188 45.363281 23.941406 45.363281 24.019531 45.363281 C 25.707031 45.347656 26.59375 46.644531 26.59375 47.9375 Z M 26.59375 47.9375 " fill-opacity="1" fill-rule="nonzero"/>
    </g>
    <path fill="#ffffff" d="M 27.160156 12.167969 L 27.160156 13.117188 L 26.59375 13.117188 L 26.59375 45.011719 C 26.175781 44.664062 25.617188 44.441406 24.914062 44.453125 C 24.84375 44.453125 24.773438 44.453125 24.695312 44.453125 C 24.179688 44.453125 23.671875 44.433594 23.167969 44.390625 C 22.867188 44.363281 22.566406 44.335938 22.261719 44.292969 L 22.261719 20.347656 C 22.261719 20.035156 22.007812 19.777344 21.695312 19.777344 L 20.292969 19.777344 L 20.292969 13.144531 L 19.726562 13.144531 L 19.726562 12.167969 Z M 27.160156 12.167969 " fill-opacity="1" fill-rule="nonzero"/>
    <g clip-path="url(#b02dbe5b78)">
        <path fill="#ffffff" d="M 27.160156 11.609375 L 19.742188 11.609375 C 19.433594 11.609375 19.175781 11.867188 19.175781 12.175781 L 19.175781 13.152344 L 20.3125 13.152344 L 20.3125 12.742188 L 26.601562 12.742188 L 26.601562 13.125 L 27.738281 13.125 L 27.738281 12.167969 C 27.726562 11.855469 27.472656 11.609375 27.160156 11.609375 Z M 19.175781 20.90625 L 19.175781 43.625 C 19.363281 43.679688 19.546875 43.742188 19.742188 43.796875 C 19.859375 43.832031 19.964844 43.855469 20.082031 43.882812 C 20.152344 43.902344 20.230469 43.917969 20.300781 43.9375 L 20.300781 20.90625 Z M 19.742188 44.921875 C 19.558594 44.878906 19.363281 44.832031 19.175781 44.789062 L 19.175781 50.367188 C 19.363281 50.394531 19.546875 50.421875 19.742188 50.449219 C 19.929688 50.476562 20.117188 50.492188 20.3125 50.511719 L 20.3125 45.035156 C 20.117188 45 19.929688 44.964844 19.742188 44.921875 Z M 19.742188 44.921875 " fill-opacity="1" fill-rule="nonzero"/>
    </g>
    <g clip-path="url(#b16a1f3024)">
        <path fill="#ffffff" d="M 20.3125 45.035156 C 20.585938 45.089844 20.871094 45.132812 21.152344 45.179688 L 21.152344 50.574219 C 20.871094 50.554688 20.59375 50.539062 20.3125 50.511719 C 20.125 50.492188 19.929688 50.476562 19.742188 50.449219 C 19.558594 50.421875 19.363281 50.394531 19.175781 50.367188 C 18.378906 50.246094 17.585938 50.066406 16.824219 49.835938 L 16.824219 44.015625 C 17.585938 44.328125 18.367188 44.585938 19.175781 44.789062 C 19.363281 44.832031 19.546875 44.886719 19.742188 44.921875 C 19.929688 44.964844 20.117188 45 20.3125 45.035156 Z M 20.3125 45.035156 " fill-opacity="1" fill-rule="nonzero"/>
    </g>
    <path fill="#ffffff" d="M 21.144531 20.90625 L 21.144531 44.125 C 20.976562 44.085938 20.808594 44.050781 20.648438 44.015625 C 20.535156 43.988281 20.417969 43.964844 20.3125 43.9375 C 20.230469 43.917969 20.160156 43.902344 20.089844 43.882812 C 19.972656 43.855469 19.859375 43.820312 19.753906 43.792969 C 19.566406 43.742188 19.371094 43.6875 19.183594 43.625 C 18.695312 43.476562 18.207031 43.296875 17.738281 43.113281 C 17.4375 42.988281 17.136719 42.855469 16.832031 42.722656 L 16.832031 27.683594 C 16.832031 27.375 16.585938 27.117188 16.265625 27.117188 L 14.863281 27.117188 L 14.863281 20.90625 Z M 21.144531 20.90625 " fill-opacity="1" fill-rule="nonzero"/>
    <path fill="#ffffff" d="M 14.855469 43.085938 C 15.128906 43.234375 15.414062 43.378906 15.699219 43.519531 L 15.699219 49.464844 C 15.414062 49.359375 15.140625 49.25 14.855469 49.136719 C 14.667969 49.054688 14.472656 48.976562 14.289062 48.886719 L 14.289062 42.765625 C 14.484375 42.871094 14.667969 42.980469 14.855469 43.085938 Z M 14.855469 43.085938 " fill-opacity="1" fill-rule="nonzero"/>
    <path fill="#ffffff" d="M 15.699219 28.25 L 15.699219 42.144531 C 15.53125 42.054688 15.359375 41.957031 15.203125 41.859375 C 15.085938 41.789062 14.96875 41.726562 14.863281 41.65625 C 14.785156 41.613281 14.714844 41.558594 14.640625 41.515625 C 14.527344 41.445312 14.410156 41.363281 14.304688 41.292969 L 14.304688 28.25 Z M 15.699219 28.25 " fill-opacity="1" fill-rule="nonzero"/>
    <path fill="#ffffff" d="M 13.730469 28.25 L 13.730469 40.894531 C 13.914062 41.027344 14.101562 41.160156 14.296875 41.292969 C 14.410156 41.371094 14.519531 41.445312 14.632812 41.515625 C 14.703125 41.558594 14.785156 41.613281 14.855469 41.65625 L 14.855469 28.25 Z M 14.296875 42.765625 C 14.109375 42.652344 13.914062 42.535156 13.730469 42.417969 L 13.730469 48.613281 C 13.914062 48.710938 14.101562 48.796875 14.296875 48.886719 C 14.484375 48.976562 14.667969 49.054688 14.863281 49.136719 L 14.863281 43.085938 C 14.667969 42.980469 14.484375 42.871094 14.296875 42.765625 Z M 14.296875 42.765625 " fill-opacity="1" fill-rule="nonzero"/>
    <path fill="#ffffff" d="M 14.855469 43.085938 C 15.128906 43.234375 15.414062 43.378906 15.699219 43.519531 L 15.699219 49.464844 C 15.414062 49.359375 15.140625 49.25 14.855469 49.136719 C 14.667969 49.054688 14.472656 48.976562 14.289062 48.886719 C 14.101562 48.796875 13.90625 48.710938 13.71875 48.613281 C 12.140625 47.8125 10.6875 46.800781 9.398438 45.605469 L 9.398438 38.585938 C 10.632812 40.078125 12.085938 41.371094 13.71875 42.417969 C 13.90625 42.535156 14.09375 42.660156 14.289062 42.765625 C 14.484375 42.871094 14.667969 42.980469 14.855469 43.085938 Z M 14.855469 43.085938 " fill-opacity="1" fill-rule="nonzero"/>
    <path fill="#ffffff" d="M 15.699219 28.25 L 15.699219 42.144531 C 15.53125 42.054688 15.359375 41.957031 15.203125 41.859375 C 15.085938 41.789062 14.96875 41.726562 14.863281 41.65625 C 14.785156 41.613281 14.714844 41.558594 14.640625 41.515625 C 14.527344 41.445312 14.410156 41.363281 14.304688 41.292969 C 14.109375 41.160156 13.921875 41.035156 13.738281 40.894531 C 12.46875 39.972656 11.324219 38.890625 10.320312 37.671875 C 10.003906 37.292969 9.699219 36.894531 9.417969 36.484375 L 9.417969 28.25 Z M 15.699219 28.25 " fill-opacity="1" fill-rule="nonzero"/>
    <g clip-path="url(#c7c7827d19)">
        <path fill="#ffffff" d="M 15.539062 13.160156 L 19.175781 13.144531 L 20.3125 13.144531 L 26.59375 13.117188 L 27.726562 13.117188 L 31.410156 13.109375 L 23.453125 6.242188 Z M 15.539062 13.160156 " fill-opacity="1" fill-rule="nonzero"/>
    </g>
    <g clip-path="url(#5ed3523382)">
        <path fill="#ffffff" d="M 26.59375 47.9375 C 26.59375 48.390625 26.484375 48.84375 26.265625 49.242188 C 25.917969 49.871094 25.28125 50.351562 24.347656 50.464844 C 23.683594 50.546875 23.007812 50.589844 22.316406 50.597656 C 22.296875 50.597656 22.289062 50.597656 22.273438 50.597656 C 21.890625 50.597656 21.519531 50.597656 21.144531 50.574219 C 20.863281 50.554688 20.585938 50.539062 20.300781 50.511719 C 20.117188 50.492188 19.921875 50.476562 19.734375 50.449219 C 19.546875 50.421875 19.351562 50.394531 19.167969 50.367188 C 18.367188 50.246094 17.578125 50.066406 16.816406 49.835938 C 16.433594 49.722656 16.0625 49.597656 15.6875 49.464844 C 15.40625 49.359375 15.128906 49.25 14.847656 49.136719 C 14.660156 49.054688 14.464844 48.976562 14.277344 48.886719 C 14.09375 48.796875 13.898438 48.710938 13.710938 48.613281 C 12.132812 47.8125 10.675781 46.800781 9.390625 45.605469 C 5.78125 42.226562 3.480469 37.417969 3.445312 32.074219 C 3.429688 29.03125 4.136719 26.15625 5.40625 23.613281 C 5.300781 24.234375 5.230469 24.855469 5.183594 25.492188 C 5.160156 25.890625 5.148438 26.300781 5.148438 26.71875 C 5.148438 31.222656 6.746094 35.359375 9.40625 38.578125 C 10.640625 40.070312 12.097656 41.363281 13.730469 42.410156 C 13.914062 42.527344 14.101562 42.652344 14.296875 42.757812 C 14.484375 42.863281 14.667969 42.980469 14.863281 43.078125 C 15.140625 43.226562 15.421875 43.367188 15.707031 43.511719 C 16.078125 43.6875 16.453125 43.855469 16.832031 44.007812 C 17.597656 44.316406 18.378906 44.574219 19.183594 44.78125 C 19.371094 44.824219 19.558594 44.878906 19.753906 44.914062 C 19.9375 44.957031 20.125 44.992188 20.320312 45.027344 C 20.59375 45.082031 20.878906 45.125 21.164062 45.171875 C 21.535156 45.222656 21.910156 45.269531 22.289062 45.292969 C 22.796875 45.339844 23.300781 45.355469 23.816406 45.355469 C 23.886719 45.355469 23.957031 45.355469 24.039062 45.355469 C 25.707031 45.347656 26.59375 46.644531 26.59375 47.9375 Z M 26.59375 47.9375 " fill-opacity="1" fill-rule="nonzero"/>
    </g>
    <g fill="#ffffff" fill-opacity="1">
        <g transform="translate(31.417548, 37.421145)">
            <g>
                <path d="M 7.671875 -14.859375 C 8.734375 -14.859375 9.640625 -14.660156 10.390625 -14.265625 C 11.148438 -13.878906 11.722656 -13.332031 12.109375 -12.625 C 12.492188 -11.925781 12.6875 -11.113281 12.6875 -10.1875 C 12.6875 -9.257812 12.492188 -8.445312 12.109375 -7.75 C 11.722656 -7.050781 11.148438 -6.503906 10.390625 -6.109375 C 9.640625 -5.722656 8.734375 -5.53125 7.671875 -5.53125 L 4.875 -5.53125 L 4.875 0 L 1.9375 0 L 1.9375 -14.859375 Z M 7.28125 -7.859375 C 8.914062 -7.859375 9.734375 -8.632812 9.734375 -10.1875 C 9.734375 -11.75 8.914062 -12.53125 7.28125 -12.53125 L 4.875 -12.53125 L 4.875 -7.859375 Z M 7.28125 -7.859375 "/>
            </g>
        </g>
    </g>
    <g fill="#ffffff" fill-opacity="1">
        <g transform="translate(44.997431, 37.421145)">
            <g>
                <path d="M 11.34375 -14.859375 L 11.34375 -12.390625 L 4.875 -12.390625 L 4.875 -8.46875 L 10.75 -8.46875 L 10.75 -6.03125 L 4.875 -6.03125 L 4.875 0 L 1.9375 0 L 1.9375 -14.859375 Z M 11.34375 -14.859375 "/>
            </g>
        </g>
    </g>
    <g fill="#ffffff" fill-opacity="1">
        <g transform="translate(56.158063, 37.421145)">
            <g>
                <path d="M 14.25 0 L 11.171875 0 L 10.046875 -3.421875 L 4.359375 -3.421875 L 3.234375 0 L 0.21875 0 L 5.359375 -14.859375 L 9.125 -14.859375 Z M 7.0625 -11.765625 L 5.15625 -5.890625 L 9.234375 -5.890625 L 7.3125 -11.765625 Z M 7.0625 -11.765625 "/>
            </g>
        </g>
    </g>
</svg>
